<svg width="160" height="40" viewBox="0 0 160 40" fill="none" xmlns="http://www.w3.org/2000/svg">
<mask id="mask0_36_4435" style="mask-type:alpha" maskUnits="userSpaceOnUse" x="120" y="0" width="40" height="40">
<path d="M122.667 0C122.667 0 120 0 120 2.66667V37.3333C120 37.3333 120 40 122.667 40H157.333C157.333 40 160 40 160 37.3333V2.66667C160 2.66667 160 0 157.333 0H122.667ZM128.358 9.33333H136.325L143.7 20.0967V9.33333H151.642V30.6667H143.675L136.3 19.905V30.6667H128.358V9.33333Z" fill="white"/>
</mask>
<g mask="url(#mask0_36_4435)">
<rect x="120" width="40" height="40" rx="20" fill="white"/>
</g>
<rect x="60" width="40" height="40" rx="20" fill="white"/>
<path d="M79.987 10C67.2234 10 67 11.1351 67 20C67 28.8649 67.2234 30 79.987 30C92.7506 30 92.974 28.8649 92.974 20C92.974 11.1351 92.7506 10 79.987 10ZM84.1493 20.4338L78.3182 23.1558C77.8078 23.3922 77.3896 23.1273 77.3896 22.5636V17.4364C77.3896 16.874 77.8078 16.6078 78.3182 16.8442L84.1493 19.5662C84.6597 19.8052 84.6597 20.1948 84.1493 20.4338Z" fill="#171717"/>
<path fill-rule="evenodd" clip-rule="evenodd" d="M0 20.1117C0 30.055 7.22167 38.3233 16.6667 40V25.555H11.6667V20H16.6667V15.555C16.6667 10.555 19.8883 7.77833 24.445 7.77833C25.8883 7.77833 27.445 8 28.8883 8.22167V13.3333H26.3333C23.8883 13.3333 23.3333 14.555 23.3333 16.1117V20H28.6667L27.7783 25.555H23.3333V40C32.7783 38.3233 40 30.0567 40 20.1117C40 9.05 31 0 20 0C9 0 0 9.05 0 20.1117Z" fill="white"/>
</svg>
