<svg width="120" height="70" viewBox="0 0 120 70" fill="none" xmlns="http://www.w3.org/2000/svg">
<path d="M13 60.7812V57.6201H32.8253V60.7812H13Z" fill="white"/>
<path d="M32.8252 60.7812V57.6201H106.999V60.7812H32.8252Z" fill="white"/>
<path d="M107 50.358H98.9672V14.048C98.9672 12.083 98.1981 11.0578 96.7454 11.0578C95.549 11.0578 94.4381 11.6558 93.2418 12.9374C93.669 13.9626 93.9254 15.1587 93.9254 16.6965V48.9911H95.8908V50.358H87.9436V14.048C87.9436 12.083 87.1745 11.0578 85.6364 11.0578C84.6109 11.0578 83.6709 11.485 82.8164 12.4247V48.9911H84.7818V50.358H74.7837V48.9911H76.7491V11.3141H74.7837V9.86168H82.8164V10.9723C83.9273 10.0326 85.4654 9.51994 87.3454 9.51994C89.8236 9.51994 91.6181 10.2889 92.729 11.8267C94.2672 10.2889 96.1472 9.51994 98.4545 9.51994C102.898 9.51994 105.034 11.9121 105.034 16.6965V48.9911H107V50.358Z" fill="white"/>
<path d="M51.4551 42.8397C51.4551 45.061 50.686 46.9406 49.2332 48.4785C47.6096 50.0163 45.5587 50.7852 43.0806 50.7852C40.6024 50.7852 38.5515 50.0163 36.9279 48.4785C35.3042 46.9406 34.5352 45.061 34.5352 42.8397V38.0553H40.6024V46.2571C40.6024 48.3076 41.4569 49.3328 43.0806 49.3328C44.6187 49.3328 45.4733 48.3076 45.4733 46.2571V40.2767C45.4733 37.799 44.7896 35.834 43.3369 34.4671L36.9279 28.0594C35.3042 26.5216 34.5352 24.2148 34.5352 21.1391V17.4654C34.5352 15.2441 35.3042 13.3645 36.8424 11.8267C38.3806 10.2889 40.346 9.51994 42.9096 9.51994C45.3878 9.51994 47.4387 10.2889 48.9769 11.8267C50.5151 13.3645 51.2841 15.2441 51.2841 17.4654V22.2498H45.2169V14.048C45.2169 11.9976 44.4478 10.9723 42.8242 10.9723C41.286 10.9723 40.5169 11.9976 40.5169 14.048V19.4304C40.5169 21.9081 41.2006 23.8731 42.5678 25.24L48.9769 31.5623C50.6005 33.1855 51.3696 35.4923 51.3696 38.4825V42.8397H51.4551Z" fill="white"/>
<path d="M73.6715 50.358H65.6388V49.2474C64.5279 50.2726 63.0752 50.6998 61.2806 50.6998C57.0079 50.6998 54.7861 48.3076 54.7861 43.5232V34.6379C54.7861 29.5972 57.777 27.1196 63.7588 27.1196H65.6388V14.048C65.6388 11.9976 64.8697 10.9723 63.3315 10.9723C61.8788 10.9723 61.1097 11.9976 61.1097 14.048V22.2498H55.0425V17.4654C55.0425 15.0732 55.8116 13.1082 57.2643 11.6558C58.8025 10.2034 60.7679 9.51994 63.3315 9.51994C65.8952 9.51994 67.9461 10.2034 69.3988 11.6558C70.8515 13.1082 71.6206 14.9878 71.6206 17.4654V48.9911H73.6715V50.358ZM65.6388 47.8804V28.4866H63.8443C61.8788 28.4866 60.8534 29.5118 60.8534 31.5623V46.2571C60.8534 48.2221 61.537 49.2474 62.9043 49.2474C63.8443 49.1619 64.6988 48.7348 65.6388 47.8804Z" fill="white"/>
<path d="M19.0672 43.1815V14.048C19.0672 11.9976 20.0072 10.9723 21.8018 10.9723C23.5963 10.9723 24.5363 11.9976 24.5363 14.048V36.6884C26.929 34.2962 29.1508 33.1001 30.6035 32.502V17.4654C30.6035 15.2441 29.749 13.3645 28.1254 11.8267C26.4163 10.2889 24.3654 9.51994 21.8018 9.51994C19.2381 9.51994 17.1872 10.2889 15.4782 11.8267C13.8545 13.3645 13 15.2441 13 17.4654V42.8397C13 44.2921 13.3418 45.5736 14.0254 46.7697C14.3673 46.5989 14.7945 46.428 15.2218 46.1717C16.2473 45.5737 17.6145 44.6339 19.0672 43.1815Z" fill="white"/>
<path d="M29.6639 34.638C28.2966 35.4069 26.4167 36.6884 24.5367 38.9952V46.2572C24.5367 46.8552 24.4512 47.3678 24.2803 47.795C23.9385 48.8202 23.084 49.3328 21.8021 49.3328C21.6312 49.3328 21.5458 49.3328 21.3749 49.3328C19.8367 49.162 19.0676 48.1368 19.0676 46.2572V45.9154V45.4028C17.5294 46.6844 16.1622 47.5387 15.0513 48.0513C15.2222 48.2222 15.3931 48.3931 15.564 48.5639C16.504 49.4183 17.5294 50.0163 18.7258 50.3581C18.8112 50.6144 18.8112 50.9561 18.7258 51.2979C18.4694 51.9813 18.1276 52.6648 17.7003 53.2629C17.1876 53.9464 16.8458 54.5444 16.8458 55.3133C16.8458 57.022 18.2985 58.4744 20.0076 58.4744C21.7167 58.4744 23.1694 57.022 23.1694 55.3133C23.1694 54.5444 22.8276 53.8609 22.3149 53.2629C21.8021 52.5794 21.3749 51.725 21.204 50.9561V50.8707C21.4603 50.8707 21.7167 50.8707 21.973 50.8707C24.5367 50.8707 26.5876 50.1018 28.2966 48.5639C29.9203 47.0261 30.7748 45.1465 30.7748 42.9252V34.2108C30.3475 34.2962 30.0057 34.4671 29.6639 34.638Z" fill="white"/>
</svg>
