<svg width="40" height="40" viewBox="0 0 40 40" fill="none" xmlns="http://www.w3.org/2000/svg">
<path d="M37.3924 17.97C37.3753 17.7825 37.2884 17.6083 37.1491 17.4817C37.0097 17.3552 36.8279 17.2855 36.6396 17.2864H20.8512C19.8108 13.2992 16.1896 10.3448 11.8808 10.3448C6.7628 10.3448 2.6 14.5076 2.6 19.6256C2.6 24.7448 6.7628 28.9064 11.8808 28.9064C16.4588 28.9064 20.262 25.5736 21.0168 21.2096H24.5328V26.2164H24.5384C24.552 26.4073 24.6374 26.5859 24.7774 26.7163C24.9173 26.8468 25.1015 26.9194 25.2928 26.9197C25.3032 26.9197 25.3124 26.9172 25.3228 26.9168V26.9212H27.7628V26.92C27.9542 26.92 28.1384 26.8474 28.2784 26.7169C28.4184 26.5865 28.5037 26.4078 28.5172 26.2168H28.5236V21.21H30.5152V28.9512H30.5212C30.5351 29.1421 30.6206 29.3207 30.7606 29.4512C30.9005 29.5818 31.0846 29.6546 31.276 29.6552L31.2844 29.6544H33.7292L33.7376 29.6552C33.929 29.6546 34.113 29.5817 34.2529 29.4511C34.3929 29.3206 34.4784 29.1421 34.4924 28.9512H34.4984V21.2096H36.6404V21.2088C36.8419 21.2085 37.0351 21.1283 37.1776 20.9858C37.3201 20.8432 37.4002 20.65 37.4004 20.4484H37.4V17.9696H37.3924V17.97ZM11.8808 25.0128C8.9456 25.0128 6.5576 22.6232 6.5576 19.6884C6.5576 16.7532 8.9456 14.364 11.8808 14.364C14.8156 14.364 17.2024 16.7532 17.2024 19.6884C17.2028 22.6236 14.8156 25.0128 11.8808 25.0128Z" fill="#1A5D54"/>
</svg>
