<svg width="40" height="40" viewBox="0 0 40 40" fill="none" xmlns="http://www.w3.org/2000/svg">
<path d="M36.25 6.25H3.75C3.05859 6.25 2.5 6.80859 2.5 7.5V32.5C2.5 33.1914 3.05859 33.75 3.75 33.75H36.25C36.9414 33.75 37.5 33.1914 37.5 32.5V7.5C37.5 6.80859 36.9414 6.25 36.25 6.25ZM33.0938 10.5039L20.7695 20.0938C20.4648 20.332 20.0391 20.332 19.7344 20.0938L7.40625 10.5039C7.35978 10.468 7.32569 10.4185 7.30877 10.3623C7.29185 10.3061 7.29294 10.246 7.31189 10.1905C7.33084 10.1349 7.3667 10.0867 7.41444 10.0525C7.46219 10.0184 7.51942 9.99999 7.57812 10H32.9219C32.9806 9.99999 33.0378 10.0184 33.0856 10.0525C33.1333 10.0867 33.1692 10.1349 33.1881 10.1905C33.2071 10.246 33.2082 10.3061 33.1912 10.3623C33.1743 10.4185 33.1402 10.468 33.0938 10.5039Z" fill="#1A5D54"/>
</svg>
