<svg width="120" height="70" viewBox="0 0 120 70" fill="none" xmlns="http://www.w3.org/2000/svg">
<path d="M13 60.7812V57.6201H32.8253V60.7812H13Z" fill="#834C33"/>
<path d="M32.8252 60.7812V57.6201H106.999V60.7812H32.8252Z" fill="#834C33"/>
<path d="M107 50.358H98.9673V14.048C98.9673 12.083 98.1982 11.0578 96.7455 11.0578C95.5491 11.0578 94.4382 11.6558 93.2419 12.9373C93.6692 13.9626 93.9255 15.1587 93.9255 16.6965V48.991H95.891V50.358H87.9437V14.048C87.9437 12.083 87.1746 11.0578 85.6365 11.0578C84.611 11.0578 83.671 11.4849 82.8165 12.4247V48.991H84.7819V50.358H74.7838V48.991H76.7493V11.3141H74.7838V9.86167H82.8165V10.9723C83.9274 10.0325 85.4656 9.51993 87.3456 9.51993C89.8237 9.51993 91.6183 10.2888 92.7292 11.8267C94.2673 10.2888 96.1473 9.51993 98.4546 9.51993C102.898 9.51993 105.035 11.9121 105.035 16.6965V48.991H107V50.358Z" fill="#1A5D54"/>
<path d="M51.4552 42.8397C51.4552 45.061 50.6861 46.9406 49.2334 48.4784C47.6097 50.0163 45.5588 50.7852 43.0807 50.7852C40.6025 50.7852 38.5516 50.0163 36.928 48.4784C35.3044 46.9406 34.5353 45.061 34.5353 42.8397V38.0553H40.6025V46.2571C40.6025 48.3076 41.4571 49.3328 43.0807 49.3328C44.6189 49.3328 45.4734 48.3076 45.4734 46.2571V40.2766C45.4734 37.799 44.7898 35.834 43.337 34.467L36.928 28.0594C35.3044 26.5216 34.5353 24.2148 34.5353 21.1391V17.4654C34.5353 15.2441 35.3044 13.3645 36.8425 11.8267C38.3807 10.2888 40.3462 9.51993 42.9098 9.51993C45.3879 9.51993 47.4388 10.2888 48.977 11.8267C50.5152 13.3645 51.2843 15.2441 51.2843 17.4654V22.2498H45.217V14.048C45.217 11.9976 44.4479 10.9723 42.8243 10.9723C41.2861 10.9723 40.5171 11.9976 40.5171 14.048V19.4304C40.5171 21.9081 41.2007 23.8731 42.568 25.24L48.977 31.5622C50.6006 33.1855 51.3697 35.4923 51.3697 38.4825V42.8397H51.4552Z" fill="#1A5D54"/>
<path d="M73.6716 50.358H65.6389V49.2474C64.528 50.2726 63.0753 50.6998 61.2808 50.6998C57.0081 50.6998 54.7863 48.3076 54.7863 43.5232V34.6379C54.7863 29.5972 57.7771 27.1196 63.7589 27.1196H65.6389V14.048C65.6389 11.9976 64.8698 10.9723 63.3317 10.9723C61.8789 10.9723 61.1099 11.9976 61.1099 14.048V22.2498H55.0426V17.4654C55.0426 15.0732 55.8117 13.1082 57.2644 11.6558C58.8026 10.2034 60.768 9.51993 63.3317 9.51993C65.8953 9.51993 67.9462 10.2034 69.3989 11.6558C70.8516 13.1082 71.6207 14.9878 71.6207 17.4654V48.991H73.6716V50.358ZM65.6389 47.8804V28.4866H63.8444C61.8789 28.4866 60.8535 29.5118 60.8535 31.5622V46.2571C60.8535 48.2221 61.5371 49.2474 62.9044 49.2474C63.8444 49.1619 64.6989 48.7347 65.6389 47.8804Z" fill="#1A5D54"/>
<path d="M19.0672 43.1814V14.048C19.0672 11.9976 20.0072 10.9723 21.8018 10.9723C23.5963 10.9723 24.5363 11.9976 24.5363 14.048V36.6884C26.929 34.2962 29.1508 33.1001 30.6035 32.502V17.4654C30.6035 15.2441 29.749 13.3645 28.1254 11.8267C26.4163 10.2888 24.3654 9.51993 21.8018 9.51993C19.2381 9.51993 17.1872 10.2888 15.4782 11.8267C13.8545 13.3645 13 15.2441 13 17.4654V42.8397C13 44.2921 13.3418 45.5736 14.0254 46.7697C14.3673 46.5989 14.7945 46.428 15.2218 46.1717C16.2473 45.5736 17.6145 44.6338 19.0672 43.1814Z" fill="#1A5D54"/>
<path d="M29.6639 34.638C28.2966 35.4069 26.4167 36.6884 24.5367 38.9952V46.2572C24.5367 46.8552 24.4512 47.3678 24.2803 47.795C23.9385 48.8202 23.084 49.3328 21.8021 49.3328C21.6312 49.3328 21.5458 49.3328 21.3749 49.3328C19.8367 49.162 19.0676 48.1367 19.0676 46.2572V45.9154V45.4028C17.5294 46.6843 16.1622 47.5387 15.0513 48.0513C15.2222 48.2222 15.3931 48.393 15.564 48.5639C16.504 49.4183 17.5294 50.0163 18.7258 50.3581C18.8112 50.6144 18.8112 50.9561 18.7258 51.2978C18.4694 51.9813 18.1276 52.6648 17.7003 53.2629C17.1876 53.9463 16.8458 54.5444 16.8458 55.3133C16.8458 57.022 18.2985 58.4744 20.0076 58.4744C21.7167 58.4744 23.1694 57.022 23.1694 55.3133C23.1694 54.5444 22.8276 53.8609 22.3149 53.2629C21.8021 52.5794 21.3749 51.725 21.204 50.9561V50.8707C21.4603 50.8707 21.7167 50.8707 21.973 50.8707C24.5367 50.8707 26.5876 50.1018 28.2966 48.5639C29.9203 47.0261 30.7748 45.1465 30.7748 42.9252V34.2108C30.3475 34.2962 30.0057 34.4671 29.6639 34.638Z" fill="#834C33"/>
</svg>
